<mxfile host="app.diagrams.net" agent="Mozilla/5.0 (Windows NT 10.0; Win64; x64) AppleWebKit/537.36 (KHTML, like Gecko) Chrome/132.0.0.0 Safari/537.36" version="24.7.17">
  <diagram name="Page-1" id="6cSNdN0AqWxEnczYMuLw">
    <mxGraphModel dx="1674" dy="772" grid="1" gridSize="10" guides="1" tooltips="1" connect="1" arrows="1" fold="1" page="1" pageScale="1" pageWidth="850" pageHeight="1100" math="0" shadow="0">
      <root>
        <mxCell id="0" />
        <mxCell id="1" parent="0" />
        <mxCell id="zsKOgBJJa0euz3c-8juE-2" value="" style="endArrow=classic;html=1;rounded=0;" edge="1" parent="1">
          <mxGeometry width="50" height="50" relative="1" as="geometry">
            <mxPoint x="120" y="230.5" as="sourcePoint" />
            <mxPoint x="190" y="227" as="targetPoint" />
            <Array as="points">
              <mxPoint x="130" y="230.5" />
            </Array>
          </mxGeometry>
        </mxCell>
        <mxCell id="zsKOgBJJa0euz3c-8juE-3" value="&lt;font style=&quot;font-size: 24px;&quot;&gt;S1&lt;/font&gt;" style="ellipse;whiteSpace=wrap;html=1;aspect=fixed;" vertex="1" parent="1">
          <mxGeometry x="190" y="187" width="80" height="80" as="geometry" />
        </mxCell>
        <mxCell id="zsKOgBJJa0euz3c-8juE-4" value="&lt;font style=&quot;font-size: 36px;&quot;&gt;1&lt;/font&gt;" style="text;html=1;align=center;verticalAlign=middle;resizable=0;points=[];autosize=1;strokeColor=none;fillColor=none;" vertex="1" parent="1">
          <mxGeometry x="130" y="167" width="40" height="60" as="geometry" />
        </mxCell>
        <mxCell id="zsKOgBJJa0euz3c-8juE-6" value="&lt;font style=&quot;font-size: 24px;&quot;&gt;S0&lt;/font&gt;" style="ellipse;whiteSpace=wrap;html=1;aspect=fixed;" vertex="1" parent="1">
          <mxGeometry x="40" y="187" width="80" height="80" as="geometry" />
        </mxCell>
        <mxCell id="zsKOgBJJa0euz3c-8juE-7" value="&lt;font style=&quot;font-size: 24px;&quot;&gt;S2&lt;/font&gt;" style="ellipse;whiteSpace=wrap;html=1;aspect=fixed;" vertex="1" parent="1">
          <mxGeometry x="350" y="187" width="80" height="80" as="geometry" />
        </mxCell>
        <mxCell id="zsKOgBJJa0euz3c-8juE-8" value="&lt;font style=&quot;font-size: 24px;&quot;&gt;S3&lt;/font&gt;" style="ellipse;whiteSpace=wrap;html=1;aspect=fixed;" vertex="1" parent="1">
          <mxGeometry x="520" y="187" width="80" height="80" as="geometry" />
        </mxCell>
        <mxCell id="zsKOgBJJa0euz3c-8juE-9" value="&lt;font style=&quot;font-size: 24px;&quot;&gt;S4&lt;/font&gt;" style="ellipse;whiteSpace=wrap;html=1;aspect=fixed;" vertex="1" parent="1">
          <mxGeometry x="700" y="187" width="80" height="80" as="geometry" />
        </mxCell>
        <mxCell id="zsKOgBJJa0euz3c-8juE-10" value="" style="endArrow=classic;html=1;rounded=0;" edge="1" parent="1">
          <mxGeometry width="50" height="50" relative="1" as="geometry">
            <mxPoint x="270" y="227" as="sourcePoint" />
            <mxPoint x="350" y="227" as="targetPoint" />
          </mxGeometry>
        </mxCell>
        <mxCell id="zsKOgBJJa0euz3c-8juE-11" value="&lt;font style=&quot;font-size: 36px;&quot;&gt;0&lt;/font&gt;" style="text;html=1;align=center;verticalAlign=middle;resizable=0;points=[];autosize=1;strokeColor=none;fillColor=none;" vertex="1" parent="1">
          <mxGeometry x="290" y="167" width="40" height="60" as="geometry" />
        </mxCell>
        <mxCell id="zsKOgBJJa0euz3c-8juE-14" value="" style="endArrow=classic;html=1;rounded=0;entryX=0;entryY=0.5;entryDx=0;entryDy=0;" edge="1" parent="1" target="zsKOgBJJa0euz3c-8juE-9">
          <mxGeometry width="50" height="50" relative="1" as="geometry">
            <mxPoint x="600" y="227" as="sourcePoint" />
            <mxPoint x="650" y="177" as="targetPoint" />
          </mxGeometry>
        </mxCell>
        <mxCell id="zsKOgBJJa0euz3c-8juE-15" value="" style="endArrow=classic;html=1;rounded=0;entryX=0;entryY=0.5;entryDx=0;entryDy=0;" edge="1" parent="1" target="zsKOgBJJa0euz3c-8juE-8">
          <mxGeometry width="50" height="50" relative="1" as="geometry">
            <mxPoint x="430" y="227" as="sourcePoint" />
            <mxPoint x="480" y="177" as="targetPoint" />
          </mxGeometry>
        </mxCell>
        <mxCell id="zsKOgBJJa0euz3c-8juE-16" value="&lt;font style=&quot;font-size: 36px;&quot;&gt;0&lt;/font&gt;" style="text;html=1;align=center;verticalAlign=middle;resizable=0;points=[];autosize=1;strokeColor=none;fillColor=none;" vertex="1" parent="1">
          <mxGeometry x="460" y="167" width="40" height="60" as="geometry" />
        </mxCell>
        <mxCell id="zsKOgBJJa0euz3c-8juE-17" value="&lt;font style=&quot;font-size: 36px;&quot;&gt;1&lt;/font&gt;" style="text;html=1;align=center;verticalAlign=middle;resizable=0;points=[];autosize=1;strokeColor=none;fillColor=none;" vertex="1" parent="1">
          <mxGeometry x="630" y="167" width="40" height="60" as="geometry" />
        </mxCell>
        <mxCell id="zsKOgBJJa0euz3c-8juE-19" value="" style="endArrow=classic;html=1;rounded=0;" edge="1" parent="1" target="zsKOgBJJa0euz3c-8juE-3">
          <mxGeometry width="50" height="50" relative="1" as="geometry">
            <mxPoint x="250" y="267" as="sourcePoint" />
            <mxPoint x="180" y="297" as="targetPoint" />
            <Array as="points">
              <mxPoint x="250" y="327" />
              <mxPoint x="200" y="337" />
            </Array>
          </mxGeometry>
        </mxCell>
        <mxCell id="zsKOgBJJa0euz3c-8juE-20" value="&lt;font style=&quot;font-size: 36px;&quot;&gt;1&lt;/font&gt;" style="text;html=1;align=center;verticalAlign=middle;resizable=0;points=[];autosize=1;strokeColor=none;fillColor=none;" vertex="1" parent="1">
          <mxGeometry x="210" y="267" width="40" height="60" as="geometry" />
        </mxCell>
        <mxCell id="zsKOgBJJa0euz3c-8juE-21" value="" style="endArrow=classic;html=1;rounded=0;" edge="1" parent="1" target="zsKOgBJJa0euz3c-8juE-3">
          <mxGeometry width="50" height="50" relative="1" as="geometry">
            <mxPoint x="395" y="267" as="sourcePoint" />
            <mxPoint x="320" y="307" as="targetPoint" />
            <Array as="points">
              <mxPoint x="370" y="307" />
              <mxPoint x="340" y="317" />
            </Array>
          </mxGeometry>
        </mxCell>
        <mxCell id="zsKOgBJJa0euz3c-8juE-22" value="&lt;font style=&quot;font-size: 36px;&quot;&gt;1&lt;/font&gt;" style="text;html=1;align=center;verticalAlign=middle;resizable=0;points=[];autosize=1;strokeColor=none;fillColor=none;" vertex="1" parent="1">
          <mxGeometry x="320" y="257" width="40" height="60" as="geometry" />
        </mxCell>
        <mxCell id="zsKOgBJJa0euz3c-8juE-23" value="" style="endArrow=classic;html=1;rounded=0;" edge="1" parent="1" target="zsKOgBJJa0euz3c-8juE-3">
          <mxGeometry width="50" height="50" relative="1" as="geometry">
            <mxPoint x="570" y="267" as="sourcePoint" />
            <mxPoint x="330" y="347" as="targetPoint" />
            <Array as="points">
              <mxPoint x="490" y="357" />
              <mxPoint x="420" y="367" />
            </Array>
          </mxGeometry>
        </mxCell>
        <mxCell id="zsKOgBJJa0euz3c-8juE-24" value="&lt;font style=&quot;font-size: 36px;&quot;&gt;1&lt;/font&gt;" style="text;html=1;align=center;verticalAlign=middle;resizable=0;points=[];autosize=1;strokeColor=none;fillColor=none;" vertex="1" parent="1">
          <mxGeometry x="480" y="277" width="40" height="60" as="geometry" />
        </mxCell>
        <mxCell id="zsKOgBJJa0euz3c-8juE-27" value="" style="endArrow=classic;html=1;rounded=0;entryX=0.5;entryY=0;entryDx=0;entryDy=0;" edge="1" parent="1" target="zsKOgBJJa0euz3c-8juE-7">
          <mxGeometry width="50" height="50" relative="1" as="geometry">
            <mxPoint x="750" y="187" as="sourcePoint" />
            <mxPoint x="400" y="147" as="targetPoint" />
            <Array as="points">
              <mxPoint x="590" y="137" />
              <mxPoint x="500" y="117" />
            </Array>
          </mxGeometry>
        </mxCell>
        <mxCell id="zsKOgBJJa0euz3c-8juE-28" value="&lt;font style=&quot;font-size: 36px;&quot;&gt;0&lt;/font&gt;" style="text;html=1;align=center;verticalAlign=middle;resizable=0;points=[];autosize=1;strokeColor=none;fillColor=none;" vertex="1" parent="1">
          <mxGeometry x="660" y="110" width="40" height="60" as="geometry" />
        </mxCell>
        <mxCell id="zsKOgBJJa0euz3c-8juE-30" value="" style="endArrow=classic;html=1;rounded=0;entryX=1;entryY=1;entryDx=0;entryDy=0;" edge="1" parent="1" target="zsKOgBJJa0euz3c-8juE-3">
          <mxGeometry width="50" height="50" relative="1" as="geometry">
            <mxPoint x="750" y="267" as="sourcePoint" />
            <mxPoint x="360" y="397" as="targetPoint" />
            <Array as="points">
              <mxPoint x="570" y="387" />
              <mxPoint x="460" y="447" />
              <mxPoint x="380" y="457" />
            </Array>
          </mxGeometry>
        </mxCell>
        <mxCell id="zsKOgBJJa0euz3c-8juE-31" value="&lt;font style=&quot;font-size: 36px;&quot;&gt;1&lt;/font&gt;" style="text;html=1;align=center;verticalAlign=middle;resizable=0;points=[];autosize=1;strokeColor=none;fillColor=none;" vertex="1" parent="1">
          <mxGeometry x="620" y="277" width="40" height="60" as="geometry" />
        </mxCell>
      </root>
    </mxGraphModel>
  </diagram>
</mxfile>
